<?xml version="1.0" encoding="UTF-8"?>
<svg id="Layer_1" data-name="Layer 1" xmlns="http://www.w3.org/2000/svg" viewBox="0 0 2675.24 514.87">
  <defs>
    <style>
      .cls-1 {
        fill: #b8974e;
      }
    </style>
  </defs>
  <g id="WrhjfP.tif">
    <g>
      <path class="cls-1" d="M595.07,345.86c5.7-3.59,8.3-10.21,9.92-16.49,8.42-32.65,7.45-72.13,15.03-105.47l-1.58-8.38-5.76-5.82h36.15l41.25,100.05,2.49-2.14c9.63-26.62,21.52-52.52,31.1-79.15,2.18-6.07,5.4-12.14,4.87-18.76h35.22c.11,1.47-1.92,1.13-2.83,2.27-2.69,3.36-2.9,8-2.77,12.13.66,20.67,6.43,49.83,9.44,71.15,1.64,11.62,3.39,39.2,10.22,47.22,1.44,1.69,3.6,2.32,4.48,4.32h-39.85c.17-1.49,2.22-1.03,3.77-2.25,6.27-4.98,4.32-11.52,4.61-18.63l-11.17-93.05-2.96,2.13-44.77,113.64c-8.58-5.52-12.8-13.91-17.02-22.81-13.97-29.46-24.66-61.62-38.37-91.34l-2.54-2.55-13.02,96.75c-.18,5.33-.29,11.62,4.18,15.35,1.45,1.21,3.82,1.21,4.19,2.75h-34.29s0-.92,0-.92Z"/>
      <path class="cls-1" d="M423.45,63.33c54.98,46.36,87.93,110.85,91.8,183.27,2.45,45.73-8.25,99.45-34,137.74-40.61,60.39-118.42,78.96-175.77,28.81-3.6-3.14-6.85-6.79-10.49-9.76-48.01,32.49-108.12,47.48-165.78,36.35-21.89-4.23-59.5-16.44-67.77-39.48-6.46-18.02,4.41-33.97,22.42-37.66,12.92-2.65,25.79.93,37.67,5.79V122.83c0-5.1-6.96-11.61-11.98-11.61h-20.46v-3.68h54.37l110.95,267.47,98.98-267.47h64.14v3.68h-25.25c-4.73,0-10.84,5.38-11.67,10.08l-.33,271.96c-.29,4.63,6.03,11.96,10.52,11.96h26.73v4.05h-100.64v-4.05h26.73c.33,0,3.58-1.45,4.13-1.77,3.15-1.86,6.38-6.88,6.38-10.57V119.52l-.74-.37-107.49,290.16-3.79-.07L125.6,127.07v243.34l13.27,7.55,1.09-98.93c1.26-13,.08-26.79,1.12-39.78.03-.43.11-1.65.74-1.65l1.86,74.59.72,76.83c-6.08-4.17-12.01-8.81-18.8-11.79v17.87c0,3.37,6.78,10.13,10.14,10.13h21.93v4.05h-68.2v-4.05h21.56c.65,0,3.38-1.35,4.12-1.78,9.74-5.64,5.52-18.9,6.33-28.19-.72-2.08-17.67-6.7-20.51-7.14-33.16-5.1-49.99,23.55-23.63,45.72,26.72,22.48,78.97,28.31,112.58,25.27,36.87-3.33,72.63-16.52,103.43-36.63l.35-.76c-7.95-9.92-16.12-20.14-21.39-31.87,3.6,5.19,6.87,10.61,10.7,15.64,2.14,2.81,4.46,5.66,6.8,8.31.86.98,5.92,6.63,6.58,6.57,13.62-9.12,26.29-19.67,37.85-31.26l.37.74c-8.83,8.95-18.51,17.46-28.42,25.2-1.64,1.28-7.24,4.79-8.1,5.91-.18.24-.38.43-.36.76,3.09,3.68,7.27,7.23,11.11,10.28,65.69,52.06,146.65,17.46,180.54-51.96,48.5-99.37,16.43-225.95-66.3-296.34l.37-.37Z"/>
      <path class="cls-1" d="M253.88,333.38l-.37.74c-18.41-44.56-36.85-89.12-55.1-133.75-9.78-23.92-18.89-48.53-29.15-72.19-12.82-29.59-35.41-59.38-72.13-49.27-42.81,11.79-71.45,71.14-82.68,110.42-34.95,122.3,26.03,250.78,141.49,301.8,83.06,36.7,181.87,26.11,254.6-28.07l.37.37c-115.31,86.34-277.73,61.25-361.93-54.78C-3.71,336.03-14.72,240.67,20,157.66c11.48-27.43,27.83-55.67,52.62-73.04,41.17-28.84,77.45-8.5,97.16,32.37,29.17,71.66,56.31,144.17,84.1,216.39Z"/>
      <path class="cls-1" d="M836.04,209.7l43.09,100.05,35.74-90.28,1.81-9.77h35.22c-1.32,2.01-3.63,2.14-4.85,4.88-.94,2.12-1.14,5.19-1.54,7.53,4.37,27.68,7.15,55.6,11.15,83.33,1.35,9.38,2.47,27.96,7.44,35.18l6.33,6.17h-39.85c.35-1.62,2.76-1.45,4.2-2.75,3.31-3,4.6-10.11,4.18-14.43l-11.61-96.77-2.52,1.22-44.77,114.6c-8.5-5.28-12.82-13.25-17.01-21.91-14.35-29.72-25.11-62.55-38.87-92.68l-2.49-2.14-12.56,93.06c.52,6.19-1.73,13.91,3.13,18.71,1.31,1.3,3.93,1.39,4.32,3.09h-33.37c5.38-5.71,8.16-11.64,9.92-19.26,7.44-32.18,7.43-68.98,14.16-101.63.44-7.66-.14-11.51-6.47-16.2h35.22Z"/>
      <path class="cls-1" d="M1325.22,206.27c52.48-4.04,94.73,40.92,78.3,93.08-19.44,61.72-113.04,68.08-141.65,10.43-23.96-48.29,12.01-99.56,63.34-103.51ZM1323.35,221.07c-70.6,8.05-53.91,125.7,18.18,113.58,65.26-10.97,51.71-121.55-18.18-113.58Z"/>
      <path class="cls-1" d="M1534.41,206.92c26.2,2.65,45.59,24.12,26.91,48.2l-11.61,8.76c3.86,2.49,8.16,3.07,12.33,5.28,27.03,14.35,25.22,48.39.93,64.49-13.64,9.04-30.12,9.81-46.12,10.41-13.41.5-26.95-.45-40.36-.05.98-1.92,3.2-2.41,4.65-4.15,5.85-7.04,3.64-19.66,3.65-27.76.03-27.93,1.64-56.58.97-84.32-.18-7.6-1.9-16.2-8.34-20.86,18.25,1.35,39.06-1.82,57,0ZM1506.14,262.5c17.4.12,42.14-2.54,39.9-25.52-1.86-19.12-25.47-19.52-39.9-16.16v41.68ZM1506.14,327.34c14.69,1.15,31.41,5.35,44-4.65,12.65-10.04,11.78-31.05-.9-40.73-12.14-9.26-28.73-7.82-43.1-6.48v51.87Z"/>
      <path class="cls-1" d="M396.91,299.49l9.4-16.94c32.11-63.63,44.41-145.42,4.38-208.5-12.73-20.05-30.38-36.11-49.92-49.4,20.86,10.12,39.2,25.57,52.65,44.46,37.89,53.21,30.88,128.1,7.24,185.79-6.37,15.53-14.2,30.82-23.76,44.59Z"/>
      <path class="cls-1" d="M2109.04,206.92c41.17,4.17,47.26,48.42,10.99,66.56-2.41,1.21-5.24,1.6-7.51,2.71-.88.43-1.54-.25-1.08,1.49,15.58,18.62,28.79,39.66,47.67,55.19l15.27,11.14h-19c-2.58,0-10.52-1.56-13.16-2.59-3.54-1.39-6.95-4.41-9.57-7.11-8.47-8.74-20.35-24.37-27.61-34.47-2.75-3.83-15.88-22.97-16.74-25.9-.47-1.62.03-1.06,1.03-1.47,5.47-2.22,11.69-2.48,17.68-5.51,13.82-6.97,21.75-23.1,12.52-37.19-8.17-12.48-25.03-11.3-37.84-8.95v108.84c0,.65,2.35,7.21,2.92,8.2l6.35,6.16h-38.93c7.67-5.2,8.74-12.99,9.31-21.73,1.73-26.85,1.95-68.73-.05-95.44-.57-7.66-1.86-15.17-8.33-19.93,17.95,1.33,38.42-1.79,56.07,0Z"/>
      <path class="cls-1" d="M1201.68,209.7c43.37,4.16,48.59,49.75,9.43,67.78-1.62.74-6.84,1.36-6.18,3.06,19.35,23.77,35.92,49.19,62.09,66.25h-20.85c-3.31,0-10.45-2.36-13.47-4.14-7.36-4.35-27.75-31.23-33.7-39.5-6.36-8.84-11.33-18.71-18.17-27.23,18.06-2.99,39.59-12.72,35.73-34.78-3.46-19.76-25.5-20.54-41.29-17.55v107.91c0,2.14,2.81,9.46,4.32,11.33,1.69,2.09,3.87,2.02,4.95,3.95h-38.93l6.69-6.75c1.08-3.8,2.25-8.35,2.57-12.25,2.18-26.86,1.75-70.16.06-97.29-.36-5.81-1.25-14.26-5.65-18.44-1.24-1.17-3.59-.76-3.66-2.36,18.02,1.27,38.32-1.7,56.07,0Z"/>
      <path class="cls-1" d="M110.49,49.33C170.83,5.5,250.89-12.7,323.47,9.45c8.98,2.74,17.69,6.26,26.26,10.05l-1.12.2C295.14,3.54,236.34.09,182.37,15.99c-25.17,7.42-49.84,18.98-71.51,33.71l-.37-.37Z"/>
      <path class="cls-1" d="M1754.53,206.92l-73.24,118.09c-.24,2.06.26,1.14,1.41,1.37,1.73.35,4.76.82,6.49.95,16.73,1.24,41.02,3.67,56.79-.66,6.56-1.8,12.38-5.42,18.74-7.66l-10.19,25.01h-109.37l74.16-119.03c.27-2.08-.34-1.1-1.4-1.37-1.44-.37-4.09-.82-5.58-.94-12.89-1.02-34.53-2.97-46.36.88-4.1,1.34-7.52,4.17-11.55,5.59l9.73-22.23h90.37Z"/>
      <path class="cls-1" d="M1915.8,207.84v23.16c-11.44-11.15-30.59-16.18-45.93-11.16-10.64,3.48-17.12,12.86-12.64,23.84,7.29,17.87,49.45,24.75,63.58,42.05,10.68,13.08,7.98,28.75-2.22,41.16-19.66,23.94-56.47,23.42-83.44,13.87l-5.1-24.54c14.96,13.2,42.76,21.2,61.34,12.21,9.8-4.74,15.55-14.21,11.71-25-8.77-24.65-67.29-23.26-70.61-60.96-3.56-40.4,56.2-44.11,83.3-34.63Z"/>
      <path class="cls-1" d="M2662.82,207.84v22.23c-13.17-10.35-31.66-15.92-47.92-9.45-16.29,6.48-14.57,23.22-2.05,32.99,21.45,16.75,78.18,24.07,58.19,65.73-14.69,30.62-60.74,31.96-88.65,21.67l-5.79-24.33,15.14,8.95c15.31,8.42,50.87,11.15,58.54-8.51,9.84-25.24-32.95-35.59-48.66-44.9-34.7-20.56-27.03-58.97,11.88-66.9,16.88-3.44,32.8-1.79,49.31,2.5Z"/>
      <path class="cls-1" d="M2455.21,208.77v23.16c-20.28-12.91-50.32-17.14-69.95-.9-27.78,22.99-20.85,73.65,9.08,91.83,22.37,13.59,48.37,5.88,70.13-4.78l-9.97,23.14c-30.05,11.43-72.81,5.99-94.3-19.43-23.68-28.01-20.35-77.61,7.88-101.45,24.44-20.64,57.8-19.25,87.13-11.57Z"/>
      <path class="cls-1" d="M2020.53,205.99v23.16c-12.13-11.25-31.17-7.18-46.34-6.48v39.83h28.27c1.06,0,4.55-1.63,6.02-1.85v21.3c-1.7-1.29-1.99-2.47-4.41-3.45-1.12-.45-6.48-2.11-7.17-2.11h-22.71v50.02c22.69,2.58,46.16,7.25,64.87-9.26l-8.33,26.86h-87.12c.35-1.58,2.75-1.5,4.19-2.76,3.81-3.32,4.76-8.59,5.11-13.41,2.55-34.36-1.98-71.86-.05-106.55l-2.58-8.54-5.75-5.83h73.68c.28,0,1.32-1.27,2.32-.93Z"/>
      <path class="cls-1" d="M2550.67,205.99v23.16c-11.95-11.53-31.2-6.97-46.34-6.48v39.83l34.29-.93v19.45c-2.74-2.13-8.2-4.63-11.59-4.63h-22.71v50.02c18.87,1.66,36.74,6.18,54.67-2.33,1.52-.72,9.77-6.46,10.2-6l-8.34,25.93h-87.12c.71-1.64,3.04-1.68,4.68-3.2,4.25-3.93,5.21-12.94,5.56-18.53,1.7-26.96,1.95-68.65-.06-95.44-.4-5.29-1.65-13.84-5.6-17.57-1.24-1.17-3.59-.76-3.66-2.36h73.68c.28,0,1.32-1.27,2.32-.93Z"/>
      <path class="cls-1" d="M1096.02,209.7c15.41,1.42,33.46,9.81,38.41,25.52,10.62,33.69-28.01,57.13-57.41,47.64l13.61-3.51c15.72-6.01,25.62-20.12,21.17-37.26-5.15-19.79-27.64-18.81-44.05-16.65v101.43c0,3.24,1.77,9.33,3.53,12.22l7.59,7.69h-40.78c.39-1.7,3.02-1.79,4.32-3.09,3.4-3.39,4.66-11.14,4.99-15.85,2.27-32.7-1.77-68.02-.06-100.99-.98-6.94-2.31-12.93-8.33-17.15,18.37,1.25,38.89-1.67,57,0Z"/>
      <path class="cls-1" d="M2187.36,206.92c0,7.42,3.19,14.79,5.54,21.79,10.1,30.04,22.58,59.43,32.93,89.38l2.36-2.27c7.94-28.8,26.34-59.86,32.88-88.49,1.87-8.18,2.43-15.17-5.13-20.41h28.73l-53.77,142.65c-8.8-5.26-17.69-10.12-22.4-19.75-15.66-38.23-27.14-78.38-44.5-115.78l-6.32-7.12h29.66Z"/>
      <path class="cls-1" d="M1634.97,206.92c-.15,1.47-2.13,1.41-3.29,2.73-3.25,3.71-4.6,8.64-5.03,13.5-2.94,32.76,2.2,69.64-.05,102.84.34,4.46,1.79,11.74,4.99,14.93,1.3,1.3,3.93,1.39,4.32,3.09h-38.93c7.67-5.19,8.74-12.98,9.31-21.73,1.75-27.1,1.86-68.41-.05-95.44-.56-7.89-1.69-14.97-8.33-19.92h37.07Z"/>
      <path class="cls-1" d="M2331.94,206.92c-.14,1.48-2.17,1.41-3.3,2.72-3.72,4.28-4.05,10.03-5.02,15.36,1.57,32.46-2.14,66.92-.06,99.14.28,4.33,1.01,9.07,2.64,13.11l6.67,6.76h-38.93l6.67-6.76c1.63-4.03,2.36-8.78,2.64-13.11,2.1-32.52-1.65-67.3-.06-100.07-.89-4.92-1.63-10.53-5.02-14.43-1.14-1.31-3.17-1.24-3.3-2.72h37.07Z"/>
      <path class="cls-1" d="M410.92,463.43l-.37-.37c3.41-2.54,6.84-5.4,10.13-8.11,9.31-7.67,17.88-16.12,26.36-24.67.16.69-.38.88-.73,1.29-1.45,1.71-3.56,3.86-5.15,5.53-9.13,9.56-19.67,18.42-30.24,26.33Z"/>
      <path class="cls-1" d="M423.45,63.33l-.37.37c-6.19-5.27-12.86-9.99-19.17-15.1.88,0,1.63.71,2.33,1.17,5.33,3.52,11.19,8.17,16.11,12.27.48.4.78,1.03,1.1,1.29Z"/>
      <path class="cls-1" d="M334.61,369.86l-.37-.74c4.1-4.11,7.88-8.58,12.16-12.53l-2.76,3.69c-3.05,3.15-5.96,6.45-9.04,9.57Z"/>
      <path class="cls-1" d="M110.85,49.7c-3.31,2.25-6.58,5.13-9.95,7.37-.17-.73.38-.87.77-1.25,2.37-2.3,6.09-4.5,8.81-6.48l.37.37Z"/>
      <path class="cls-1" d="M253.88,333.38c1.42,3.69,3.02,7.35,4.42,11.05-.95.19-.65-.2-.92-.72-1.51-2.8-2.63-6.6-3.87-9.6l.37-.74Z"/>
      <path class="cls-1" d="M393.9,304.94c-.21.12-.99.24-1.04-.11l3.13-4.6c.8.6.43.57.11,1.2-.22.44-2.02,3.4-2.2,3.5Z"/>
    </g>
  </g>
</svg>